<mxfile host="Electron" modified="2023-10-29T14:02:01.139Z" agent="Mozilla/5.0 (Windows NT 10.0; Win64; x64) AppleWebKit/537.36 (KHTML, like Gecko) draw.io/21.6.8 Chrome/114.0.5735.289 Electron/25.5.0 Safari/537.36" etag="HBy1QCIGY9g3_2ItUx--" version="21.6.8" type="device">
  <diagram name="Page-1" id="8NmYkB-9R13xUKC11E8n">
    <mxGraphModel dx="478" dy="281" grid="1" gridSize="10" guides="1" tooltips="1" connect="1" arrows="1" fold="1" page="1" pageScale="1" pageWidth="850" pageHeight="1100" math="0" shadow="0">
      <root>
        <mxCell id="0" />
        <mxCell id="1" parent="0" />
        <mxCell id="1nN2JXXsBxmnhnnC0gjk-69" value="" style="rounded=0;whiteSpace=wrap;html=1;shadow=1;" vertex="1" parent="1">
          <mxGeometry x="370" y="283" width="40" height="126" as="geometry" />
        </mxCell>
        <mxCell id="1nN2JXXsBxmnhnnC0gjk-3" value="7_segment_display.dll (1)" style="shape=module;align=left;spacingLeft=20;align=center;verticalAlign=top;whiteSpace=wrap;html=1;fontFamily=Computer Modern;shadow=1;" vertex="1" parent="1">
          <mxGeometry x="492" y="280" width="155" height="50" as="geometry" />
        </mxCell>
        <mxCell id="1nN2JXXsBxmnhnnC0gjk-4" value="" style="ellipse;whiteSpace=wrap;html=1;aspect=fixed;fontFamily=Computer Modern;" vertex="1" parent="1">
          <mxGeometry x="395" y="290" width="8" height="8" as="geometry" />
        </mxCell>
        <mxCell id="1nN2JXXsBxmnhnnC0gjk-12" value="" style="ellipse;whiteSpace=wrap;html=1;aspect=fixed;fontFamily=Computer Modern;" vertex="1" parent="1">
          <mxGeometry x="395" y="300" width="8" height="8" as="geometry" />
        </mxCell>
        <mxCell id="1nN2JXXsBxmnhnnC0gjk-13" value="" style="ellipse;whiteSpace=wrap;html=1;aspect=fixed;fontFamily=Computer Modern;" vertex="1" parent="1">
          <mxGeometry x="395" y="310" width="8" height="8" as="geometry" />
        </mxCell>
        <mxCell id="1nN2JXXsBxmnhnnC0gjk-14" value="" style="ellipse;whiteSpace=wrap;html=1;aspect=fixed;fontFamily=Computer Modern;" vertex="1" parent="1">
          <mxGeometry x="395" y="320" width="8" height="8" as="geometry" />
        </mxCell>
        <mxCell id="1nN2JXXsBxmnhnnC0gjk-15" value="" style="ellipse;whiteSpace=wrap;html=1;aspect=fixed;fontFamily=Computer Modern;" vertex="1" parent="1">
          <mxGeometry x="395" y="330" width="8" height="8" as="geometry" />
        </mxCell>
        <mxCell id="1nN2JXXsBxmnhnnC0gjk-16" value="" style="ellipse;whiteSpace=wrap;html=1;aspect=fixed;fontFamily=Computer Modern;" vertex="1" parent="1">
          <mxGeometry x="395" y="340" width="8" height="8" as="geometry" />
        </mxCell>
        <mxCell id="1nN2JXXsBxmnhnnC0gjk-17" value="" style="ellipse;whiteSpace=wrap;html=1;aspect=fixed;fontFamily=Computer Modern;" vertex="1" parent="1">
          <mxGeometry x="395" y="350" width="8" height="8" as="geometry" />
        </mxCell>
        <mxCell id="1nN2JXXsBxmnhnnC0gjk-18" value="" style="ellipse;whiteSpace=wrap;html=1;aspect=fixed;fontFamily=Computer Modern;" vertex="1" parent="1">
          <mxGeometry x="395" y="360" width="8" height="8" as="geometry" />
        </mxCell>
        <mxCell id="1nN2JXXsBxmnhnnC0gjk-23" value="01" style="text;html=1;strokeColor=none;fillColor=none;align=center;verticalAlign=middle;whiteSpace=wrap;rounded=0;fontFamily=Computer Modern;" vertex="1" parent="1">
          <mxGeometry x="380" y="288" width="5" height="12" as="geometry" />
        </mxCell>
        <mxCell id="1nN2JXXsBxmnhnnC0gjk-24" value="02" style="text;html=1;strokeColor=none;fillColor=none;align=center;verticalAlign=middle;whiteSpace=wrap;rounded=0;fontFamily=Computer Modern;" vertex="1" parent="1">
          <mxGeometry x="380" y="298" width="5" height="12" as="geometry" />
        </mxCell>
        <mxCell id="1nN2JXXsBxmnhnnC0gjk-25" value="03" style="text;html=1;strokeColor=none;fillColor=none;align=center;verticalAlign=middle;whiteSpace=wrap;rounded=0;fontFamily=Computer Modern;" vertex="1" parent="1">
          <mxGeometry x="380" y="308" width="5" height="12" as="geometry" />
        </mxCell>
        <mxCell id="1nN2JXXsBxmnhnnC0gjk-26" value="04" style="text;html=1;strokeColor=none;fillColor=none;align=center;verticalAlign=middle;whiteSpace=wrap;rounded=0;fontFamily=Computer Modern;" vertex="1" parent="1">
          <mxGeometry x="380" y="318" width="5" height="12" as="geometry" />
        </mxCell>
        <mxCell id="1nN2JXXsBxmnhnnC0gjk-27" value="05" style="text;html=1;strokeColor=none;fillColor=none;align=center;verticalAlign=middle;whiteSpace=wrap;rounded=0;fontFamily=Computer Modern;" vertex="1" parent="1">
          <mxGeometry x="380" y="328" width="5" height="12" as="geometry" />
        </mxCell>
        <mxCell id="1nN2JXXsBxmnhnnC0gjk-28" value="06&lt;br&gt;" style="text;html=1;strokeColor=none;fillColor=none;align=center;verticalAlign=middle;whiteSpace=wrap;rounded=0;fontFamily=Computer Modern;" vertex="1" parent="1">
          <mxGeometry x="380" y="338" width="5" height="12" as="geometry" />
        </mxCell>
        <mxCell id="1nN2JXXsBxmnhnnC0gjk-29" value="07" style="text;html=1;strokeColor=none;fillColor=none;align=center;verticalAlign=middle;whiteSpace=wrap;rounded=0;fontFamily=Computer Modern;" vertex="1" parent="1">
          <mxGeometry x="380" y="348" width="5" height="12" as="geometry" />
        </mxCell>
        <mxCell id="1nN2JXXsBxmnhnnC0gjk-30" value="08" style="text;html=1;strokeColor=none;fillColor=none;align=center;verticalAlign=middle;whiteSpace=wrap;rounded=0;fontFamily=Computer Modern;" vertex="1" parent="1">
          <mxGeometry x="380" y="358" width="5" height="12" as="geometry" />
        </mxCell>
        <mxCell id="1nN2JXXsBxmnhnnC0gjk-31" value="7_segment_display.dll (2)" style="shape=module;align=left;spacingLeft=20;align=center;verticalAlign=top;whiteSpace=wrap;html=1;fontFamily=Computer Modern;shadow=1;" vertex="1" parent="1">
          <mxGeometry x="492" y="348" width="155" height="50" as="geometry" />
        </mxCell>
        <mxCell id="1nN2JXXsBxmnhnnC0gjk-32" value="" style="endArrow=none;html=1;rounded=0;exitX=1;exitY=0.5;exitDx=0;exitDy=0;fontFamily=Computer Modern;" edge="1" parent="1" source="1nN2JXXsBxmnhnnC0gjk-4">
          <mxGeometry width="50" height="50" relative="1" as="geometry">
            <mxPoint x="420" y="340" as="sourcePoint" />
            <mxPoint x="490" y="294" as="targetPoint" />
          </mxGeometry>
        </mxCell>
        <mxCell id="1nN2JXXsBxmnhnnC0gjk-33" value="" style="endArrow=none;html=1;rounded=0;exitX=1;exitY=0.5;exitDx=0;exitDy=0;fontFamily=Computer Modern;" edge="1" parent="1">
          <mxGeometry width="50" height="50" relative="1" as="geometry">
            <mxPoint x="403" y="303.89" as="sourcePoint" />
            <mxPoint x="490" y="303.89" as="targetPoint" />
          </mxGeometry>
        </mxCell>
        <mxCell id="1nN2JXXsBxmnhnnC0gjk-34" value="" style="endArrow=none;html=1;rounded=0;exitX=1;exitY=0.5;exitDx=0;exitDy=0;fontFamily=Computer Modern;" edge="1" parent="1">
          <mxGeometry width="50" height="50" relative="1" as="geometry">
            <mxPoint x="403" y="313.89" as="sourcePoint" />
            <mxPoint x="490" y="313.89" as="targetPoint" />
          </mxGeometry>
        </mxCell>
        <mxCell id="1nN2JXXsBxmnhnnC0gjk-35" value="" style="endArrow=none;html=1;rounded=0;fontFamily=Computer Modern;" edge="1" parent="1">
          <mxGeometry width="50" height="50" relative="1" as="geometry">
            <mxPoint x="455" y="360" as="sourcePoint" />
            <mxPoint x="455" y="294" as="targetPoint" />
          </mxGeometry>
        </mxCell>
        <mxCell id="1nN2JXXsBxmnhnnC0gjk-38" value="" style="endArrow=none;html=1;rounded=0;fontFamily=Computer Modern;" edge="1" parent="1">
          <mxGeometry width="50" height="50" relative="1" as="geometry">
            <mxPoint x="465" y="370" as="sourcePoint" />
            <mxPoint x="465" y="304" as="targetPoint" />
          </mxGeometry>
        </mxCell>
        <mxCell id="1nN2JXXsBxmnhnnC0gjk-39" value="" style="endArrow=none;html=1;rounded=0;fontFamily=Computer Modern;" edge="1" parent="1">
          <mxGeometry width="50" height="50" relative="1" as="geometry">
            <mxPoint x="475" y="380" as="sourcePoint" />
            <mxPoint x="475" y="314" as="targetPoint" />
          </mxGeometry>
        </mxCell>
        <mxCell id="1nN2JXXsBxmnhnnC0gjk-40" value="" style="ellipse;whiteSpace=wrap;html=1;aspect=fixed;fillColor=#0D0D0D;strokeColor=none;fontSize=3;fontFamily=Computer Modern;" vertex="1" parent="1">
          <mxGeometry x="453" y="292" width="4" height="4" as="geometry" />
        </mxCell>
        <mxCell id="1nN2JXXsBxmnhnnC0gjk-41" value="" style="ellipse;whiteSpace=wrap;html=1;aspect=fixed;fillColor=#0D0D0D;strokeColor=none;fontSize=3;fontFamily=Computer Modern;" vertex="1" parent="1">
          <mxGeometry x="463" y="302" width="4" height="4" as="geometry" />
        </mxCell>
        <mxCell id="1nN2JXXsBxmnhnnC0gjk-42" value="" style="ellipse;whiteSpace=wrap;html=1;aspect=fixed;fillColor=#0D0D0D;strokeColor=none;fontSize=3;fontFamily=Computer Modern;" vertex="1" parent="1">
          <mxGeometry x="473" y="312" width="4" height="4" as="geometry" />
        </mxCell>
        <mxCell id="1nN2JXXsBxmnhnnC0gjk-43" value="" style="endArrow=none;html=1;rounded=0;fontFamily=Computer Modern;" edge="1" parent="1">
          <mxGeometry width="50" height="50" relative="1" as="geometry">
            <mxPoint x="455" y="360" as="sourcePoint" />
            <mxPoint x="490" y="360" as="targetPoint" />
          </mxGeometry>
        </mxCell>
        <mxCell id="1nN2JXXsBxmnhnnC0gjk-44" value="" style="endArrow=none;html=1;rounded=0;fontFamily=Computer Modern;" edge="1" parent="1">
          <mxGeometry width="50" height="50" relative="1" as="geometry">
            <mxPoint x="465" y="370" as="sourcePoint" />
            <mxPoint x="490" y="370" as="targetPoint" />
          </mxGeometry>
        </mxCell>
        <mxCell id="1nN2JXXsBxmnhnnC0gjk-45" value="" style="endArrow=none;html=1;rounded=0;fontFamily=Computer Modern;" edge="1" parent="1">
          <mxGeometry width="50" height="50" relative="1" as="geometry">
            <mxPoint x="475" y="380" as="sourcePoint" />
            <mxPoint x="490" y="380" as="targetPoint" />
          </mxGeometry>
        </mxCell>
        <mxCell id="1nN2JXXsBxmnhnnC0gjk-48" value="" style="verticalLabelPosition=bottom;shadow=0;dashed=0;align=center;html=1;verticalAlign=top;shape=mxgraph.electrical.opto_electronics.7_segment_display_with_dp;pointerEvents=1;fillColor=#f5f5f5;strokeColor=#666666;fontColor=#333333;fontFamily=Computer Modern;" vertex="1" parent="1">
          <mxGeometry x="660" y="283" width="30" height="44" as="geometry" />
        </mxCell>
        <mxCell id="1nN2JXXsBxmnhnnC0gjk-49" value="" style="verticalLabelPosition=bottom;shadow=0;dashed=0;align=center;html=1;verticalAlign=top;shape=mxgraph.electrical.opto_electronics.7_segment_display_with_dp;pointerEvents=1;fillColor=#f5f5f5;fontColor=#333333;strokeColor=#666666;fontFamily=Computer Modern;" vertex="1" parent="1">
          <mxGeometry x="660" y="351" width="30" height="44" as="geometry" />
        </mxCell>
        <mxCell id="1nN2JXXsBxmnhnnC0gjk-56" value="" style="ellipse;whiteSpace=wrap;html=1;aspect=fixed;fontFamily=Computer Modern;" vertex="1" parent="1">
          <mxGeometry x="395" y="382" width="8" height="8" as="geometry" />
        </mxCell>
        <mxCell id="1nN2JXXsBxmnhnnC0gjk-57" value="" style="ellipse;whiteSpace=wrap;html=1;aspect=fixed;fontFamily=Computer Modern;" vertex="1" parent="1">
          <mxGeometry x="395" y="392" width="8" height="8" as="geometry" />
        </mxCell>
        <mxCell id="1nN2JXXsBxmnhnnC0gjk-64" value="53" style="text;html=1;strokeColor=none;fillColor=none;align=center;verticalAlign=middle;whiteSpace=wrap;rounded=0;fontFamily=Computer Modern;" vertex="1" parent="1">
          <mxGeometry x="380" y="380" width="5" height="12" as="geometry" />
        </mxCell>
        <mxCell id="1nN2JXXsBxmnhnnC0gjk-65" value="54" style="text;html=1;strokeColor=none;fillColor=none;align=center;verticalAlign=middle;whiteSpace=wrap;rounded=0;fontFamily=Computer Modern;" vertex="1" parent="1">
          <mxGeometry x="380" y="390" width="5" height="12" as="geometry" />
        </mxCell>
        <mxCell id="1nN2JXXsBxmnhnnC0gjk-66" value="" style="endArrow=none;dashed=1;html=1;dashPattern=1 3;strokeWidth=1;rounded=0;entryX=0.5;entryY=1;entryDx=0;entryDy=0;fontFamily=Computer Modern;" edge="1" parent="1" target="1nN2JXXsBxmnhnnC0gjk-18">
          <mxGeometry width="50" height="50" relative="1" as="geometry">
            <mxPoint x="399" y="380" as="sourcePoint" />
            <mxPoint x="399" y="408" as="targetPoint" />
          </mxGeometry>
        </mxCell>
        <mxCell id="1nN2JXXsBxmnhnnC0gjk-68" value="GPIO pins" style="text;html=1;strokeColor=none;fillColor=none;align=center;verticalAlign=middle;whiteSpace=wrap;rounded=0;fontFamily=Computer Modern;" vertex="1" parent="1">
          <mxGeometry x="360" y="256" width="60" height="30" as="geometry" />
        </mxCell>
      </root>
    </mxGraphModel>
  </diagram>
</mxfile>
